<svg width="94" height="94" viewBox="0 0 94 94" fill="none" xmlns="http://www.w3.org/2000/svg">
<g filter="url(#filter0_d_3_80)">
<path d="M82.0424 32.5279C82.0029 29.5615 81.4476 26.6246 80.4013 23.8485C79.494 21.507 78.1083 19.3804 76.3326 17.6047C74.5569 15.829 72.4303 14.4433 70.0888 13.536C67.3484 12.5073 64.4534 11.951 61.5269 11.891C57.7591 11.7225 56.5645 11.6755 47 11.6755C37.4355 11.6755 36.2096 11.6755 32.4692 11.891C29.544 11.9515 26.6504 12.5077 23.9113 13.536C21.5693 14.4426 19.4424 15.8282 17.6666 17.6039C15.8909 19.3797 14.5053 21.5066 13.5987 23.8485C12.5679 26.5868 12.0129 29.4811 11.9576 32.4065C11.7892 36.1782 11.7383 37.3728 11.7383 46.9373C11.7383 56.5018 11.7383 57.7238 11.9576 61.4681C12.0163 64.3978 12.5686 67.2883 13.5987 70.0339C14.5069 72.3751 15.8934 74.5011 17.6698 76.2762C19.4462 78.0512 21.5733 79.4361 23.9152 80.3425C26.6468 81.4126 29.541 82.0086 32.4731 82.105C36.2448 82.2734 37.4394 82.3244 47.0039 82.3244C56.5684 82.3244 57.7943 82.3244 61.5348 82.105C64.4611 82.0474 67.3563 81.4925 70.0966 80.464C72.4375 79.5556 74.5636 78.1695 76.3391 76.3939C78.1147 74.6184 79.5008 72.4923 80.4092 70.1514C81.4393 67.4097 81.9915 64.5192 82.0503 61.5856C82.2187 57.8178 82.2696 56.6232 82.2696 47.0548C82.2617 37.4903 82.2618 36.2761 82.0424 32.5279V32.5279ZM46.9765 65.0245C36.9733 65.0245 28.8697 56.9209 28.8697 46.9177C28.8697 36.9145 36.9733 28.811 46.9765 28.811C51.7787 28.811 56.3842 30.7186 59.7799 34.1143C63.1756 37.51 65.0833 42.1155 65.0833 46.9177C65.0833 51.7199 63.1756 56.3254 59.7799 59.7211C56.3842 63.1168 51.7787 65.0245 46.9765 65.0245V65.0245ZM65.8039 32.3634C65.2493 32.3639 64.7 32.255 64.1876 32.043C63.6751 31.831 63.2094 31.52 62.8173 31.1279C62.4251 30.7357 62.1141 30.2701 61.9021 29.7576C61.6901 29.2451 61.5812 28.6958 61.5818 28.1412C61.5818 27.587 61.6909 27.0382 61.903 26.5262C62.1151 26.0142 62.4259 25.5489 62.8178 25.1571C63.2097 24.7652 63.6749 24.4543 64.187 24.2422C64.699 24.0302 65.2478 23.921 65.802 23.921C66.3562 23.921 66.9049 24.0302 67.417 24.2422C67.929 24.4543 68.3942 24.7652 68.7861 25.1571C69.178 25.5489 69.4888 26.0142 69.7009 26.5262C69.913 27.0382 70.0222 27.587 70.0222 28.1412C70.0222 30.4755 68.1343 32.3634 65.8039 32.3634Z" fill="black"/>
<path d="M46.9765 58.6795C53.4723 58.6795 58.7383 53.4136 58.7383 46.9178C58.7383 40.4219 53.4723 35.156 46.9765 35.156C40.4807 35.156 35.2148 40.4219 35.2148 46.9178C35.2148 53.4136 40.4807 58.6795 46.9765 58.6795Z" fill="black"/>
</g>
<defs>
<filter id="filter0_d_3_80" x="-4" y="0" width="102" height="102" filterUnits="userSpaceOnUse" color-interpolation-filters="sRGB">
<feFlood flood-opacity="0" result="BackgroundImageFix"/>
<feColorMatrix in="SourceAlpha" type="matrix" values="0 0 0 0 0 0 0 0 0 0 0 0 0 0 0 0 0 0 127 0" result="hardAlpha"/>
<feOffset dy="4"/>
<feGaussianBlur stdDeviation="2"/>
<feComposite in2="hardAlpha" operator="out"/>
<feColorMatrix type="matrix" values="0 0 0 0 0 0 0 0 0 0 0 0 0 0 0 0 0 0 0.25 0"/>
<feBlend mode="normal" in2="BackgroundImageFix" result="effect1_dropShadow_3_80"/>
<feBlend mode="normal" in="SourceGraphic" in2="effect1_dropShadow_3_80" result="shape"/>
</filter>
</defs>
</svg>
