<svg width="99" height="101" viewBox="0 0 99 101" fill="none" xmlns="http://www.w3.org/2000/svg">
<path d="M49.5 6.3125C25.5814 6.3125 6.1875 26.0982 6.1875 50.5C6.1875 74.9018 25.5814 94.6875 49.5 94.6875C73.4186 94.6875 92.8125 74.9018 92.8125 50.5C92.8125 26.0982 73.4186 6.3125 49.5 6.3125ZM70.3151 39.6208C70.3441 40.0844 70.3441 40.5677 70.3441 41.0411C70.3441 55.5204 59.5354 72.1992 39.7837 72.1992C33.6929 72.1992 28.0468 70.3942 23.2901 67.2873C24.1603 67.3859 24.9917 67.4254 25.8812 67.4254C30.9085 67.4254 35.5298 65.6895 39.2133 62.7502C34.4953 62.6516 30.5314 59.4953 29.1779 55.1555C30.8312 55.4021 32.32 55.4021 34.0216 54.9582C31.5923 54.4547 29.4088 53.1087 27.842 51.1488C26.2752 49.189 25.4218 46.7362 25.4268 44.2072V44.0691C26.8479 44.8878 28.5205 45.3908 30.2704 45.4599C28.7994 44.4597 27.5929 43.1046 26.7581 41.5148C25.9233 39.9251 25.486 38.1497 25.4848 36.3462C25.4848 34.3045 26.0068 32.4403 26.9446 30.8228C29.6411 34.2092 33.0058 36.9788 36.8201 38.9517C40.6345 40.9246 44.813 42.0566 49.0843 42.274C47.5664 34.8272 53.0191 28.8008 59.574 28.8008C62.6678 28.8008 65.4521 30.1225 67.4147 32.2529C69.8414 31.7894 72.1617 30.8622 74.2307 29.6194C73.4282 32.1543 71.746 34.2946 69.5127 35.6459C71.6783 35.4092 73.7666 34.7977 75.7002 33.9396C74.2403 36.1292 72.4131 38.0723 70.3151 39.6208V39.6208Z" fill="black"/>
</svg>
